<svg width="80" height="80" viewBox="0 0 80 80" fill="none" xmlns="http://www.w3.org/2000/svg">
<path d="M71.7631 56.2713C61.468 76.1998 38.9748 84.9427 21.5758 75.9826C4.17748 67.0229 -1.72742 43.6569 8.5676 23.7287C18.8628 3.80018 41.3559 -4.94269 58.7549 4.01737C76.1532 12.9771 82.0581 36.3431 71.7631 56.2713Z" fill="white" stroke="#121212"/>
<g clip-path="url(#clip0_646_9190)">
<path d="M49.3433 55.5696L44.3066 52.5857" stroke="#121212" stroke-width="1.6" stroke-miterlimit="10" stroke-linecap="round" stroke-linejoin="round"/>
<path d="M46.2093 57.8309L42.4983 55.6324" stroke="#121212" stroke-width="1.6" stroke-miterlimit="10" stroke-linecap="round" stroke-linejoin="round"/>
<path d="M42.4112 59.6987L40.9569 58.8373" stroke="#121212" stroke-width="1.6" stroke-miterlimit="10" stroke-linecap="round" stroke-linejoin="round"/>
<mask id="mask0_646_9190" style="mask-type:luminance" maskUnits="userSpaceOnUse" x="16" y="16" width="48" height="48">
<path d="M16 16H64V64H16V16Z" fill="white"/>
</mask>
<g mask="url(#mask0_646_9190)">
<path d="M39.9222 43.2054L39.6664 43.0541C38.1951 42.2097 37.507 42.0536 36.1796 42.5668L34.7328 43.126C33.8524 43.4664 32.8646 43.3842 32.0525 42.903L31.1578 42.3756" stroke="#121212" stroke-width="1.6" stroke-miterlimit="10" stroke-linecap="round" stroke-linejoin="round"/>
<path d="M25.6154 51.6354L27.1145 52.5202" stroke="#121212" stroke-width="1.6" stroke-miterlimit="10" stroke-linecap="round" stroke-linejoin="round"/>
<path d="M38.2051 61.325L40.6054 62.747C41.447 63.2457 42.5337 62.9676 43.0324 62.1258C43.5311 61.2841 43.253 60.1975 42.4112 59.6987L44.4035 60.8791C45.2452 61.3777 46.3319 61.0997 46.8305 60.2579C47.3292 59.4162 47.051 58.3295 46.2094 57.8309L47.5375 58.6177C48.3792 59.1164 49.4659 58.8384 49.9646 57.9966V57.9965C50.4633 57.1548 50.1851 56.0683 49.3434 55.5695L50.9688 56.5325C51.8105 57.0311 52.897 56.753 53.3957 55.9114C53.8943 55.0697 53.6163 53.9832 52.7745 53.4845" stroke="#121212" stroke-width="1.6" stroke-miterlimit="10" stroke-linecap="round" stroke-linejoin="round"/>
<path d="M49.0543 42.7818L48.8457 42.9031C48.0336 43.3842 47.0458 43.4663 46.1654 43.126L44.5338 42.485C44.0235 42.2845 43.4632 42.2491 42.9316 42.3836L40.4319 43.0162C39.2682 43.3108 38.453 44.358 38.453 45.5582V48.8953C38.453 49.3671 38.8353 49.7508 39.3072 49.7512C40.7299 49.7521 41.8837 48.599 41.8837 47.1764V47.0351L52.5838 53.3716C52.782 53.1604 53.0093 52.9779 53.2593 52.8298L54.6433 52.0212" stroke="#121212" stroke-width="1.6" stroke-miterlimit="10" stroke-linecap="round" stroke-linejoin="round"/>
<path d="M28.8088 56.1931C28.2385 56.9876 27.1319 57.1693 26.3374 56.5989C25.5429 56.0285 25.3612 54.922 25.9317 54.1275L26.9348 52.7302C27.5052 51.9356 28.6117 51.7539 29.4062 52.3242C30.2007 52.8947 30.3824 54.0012 29.8121 54.7958" stroke="#121212" stroke-width="1.6" stroke-miterlimit="10" stroke-linecap="round" stroke-linejoin="round"/>
<path d="M33.7963 55.3193L31.686 58.2587C31.1157 59.0532 30.0092 59.2349 29.2146 58.6646C28.4201 58.0942 28.2384 56.9876 28.8088 56.1931L30.9192 53.2537C31.4895 52.4591 32.596 52.2775 33.3905 52.8478C34.185 53.4182 34.3667 54.5246 33.7963 55.3193Z" stroke="#121212" stroke-width="1.6" stroke-miterlimit="10" stroke-linecap="round" stroke-linejoin="round"/>
<path d="M33.7964 55.3193C34.3668 54.5247 35.4733 54.3431 36.2678 54.9134C37.0624 55.4838 37.2441 56.5904 36.6736 57.3849L34.5634 60.3243C33.993 61.1189 32.8865 61.3005 32.0919 60.7302C31.2974 60.1598 31.1157 59.0533 31.6861 58.2587" stroke="#121212" stroke-width="1.6" stroke-miterlimit="10" stroke-linecap="round" stroke-linejoin="round"/>
<path d="M35.736 58.691C36.3063 57.8965 37.4129 57.7148 38.2074 58.2851C39.0019 58.8556 39.1836 59.962 38.6131 60.7566L37.9115 61.7341C37.3411 62.5286 36.2345 62.7102 35.4401 62.1399C34.6456 61.5695 34.4639 60.463 35.0342 59.6685" stroke="#121212" stroke-width="1.6" stroke-miterlimit="10" stroke-linecap="round" stroke-linejoin="round"/>
<path d="M36.5234 20.4417V18.6245C36.5234 17.7303 37.248 17.0054 38.1422 17.0054H41.8574C42.7516 17.0054 43.4761 17.7303 43.4761 18.6245V20.4417" stroke="#121212" stroke-width="1.6" stroke-miterlimit="10" stroke-linecap="round" stroke-linejoin="round"/>
<path d="M34.772 25.2629V28.216" stroke="#121212" stroke-width="1.6" stroke-miterlimit="10" stroke-linecap="round" stroke-linejoin="round"/>
<path d="M45.2279 25.2629V28.216" stroke="#121212" stroke-width="1.6" stroke-miterlimit="10" stroke-linecap="round" stroke-linejoin="round"/>
<path d="M60.9569 50.1914L62.2862 49.399C62.9129 49.0254 63.2968 48.3496 63.2968 47.62V33.5414C63.2968 32.9227 62.6227 32.5397 62.0911 32.8565L49.4789 40.3742C48.77 40.7968 48.5367 41.7136 48.9574 42.4238L54.7245 52.1584C55.1468 52.8713 56.0678 53.1057 56.7795 52.6815L58.1109 51.8879" stroke="#121212" stroke-width="1.6" stroke-miterlimit="10" stroke-linecap="round" stroke-linejoin="round"/>
<path d="M17.9088 32.8565L30.5209 40.3742C31.2301 40.7968 31.4634 41.7137 31.0426 42.4238L25.2755 52.1585C24.8532 52.8713 23.9322 53.1057 23.2204 52.6815L17.7137 49.399C17.087 49.0255 16.7031 48.3497 16.7031 47.6201V33.5415C16.7031 32.9226 17.3774 32.5397 17.9088 32.8565Z" stroke="#121212" stroke-width="1.6" stroke-miterlimit="10" stroke-linecap="round" stroke-linejoin="round"/>
<path d="M29.9963 27.6688V22.3855C29.9963 21.3119 30.8666 20.4417 31.9401 20.4417H48.0599C49.1333 20.4417 50.0037 21.3119 50.0037 22.3855V31.9762C50.0037 33.0498 49.1333 33.92 48.0599 33.92H31.9401C30.8666 33.92 29.9963 33.0498 29.9963 31.9762V30.956" stroke="#121212" stroke-width="1.6" stroke-miterlimit="10" stroke-linecap="round" stroke-linejoin="round"/>
<path d="M29.9963 23.2173C29.9963 25.1625 31.5732 26.7394 33.5184 26.7394H46.4814C48.4266 26.7394 50.0037 25.1625 50.0037 23.2173" stroke="#121212" stroke-width="1.6" stroke-miterlimit="10" stroke-linecap="round" stroke-linejoin="round"/>
</g>
</g>
<defs>
<clipPath id="clip0_646_9190">
<rect width="48" height="48" fill="white" transform="translate(16 16)"/>
</clipPath>
</defs>
</svg>
