<svg width="80" height="80" viewBox="0 0 80 80" fill="none" xmlns="http://www.w3.org/2000/svg">
<path d="M71.7631 56.2713C61.468 76.1998 38.9748 84.9427 21.5758 75.9826C4.17748 67.0229 -1.72742 43.6569 8.5676 23.7287C18.8628 3.80018 41.3559 -4.94269 58.7549 4.01737C76.1532 12.9771 82.0581 36.3431 71.7631 56.2713Z" fill="white" stroke="#121212"/>
<g clip-path="url(#clip0_646_9241)">
<path d="M42.3158 25.7667C38.6712 23.9661 37.7535 21.1696 32.8955 20.252C30.0642 19.717 29.6772 19.2125 29.0987 17.051C29.0534 16.8867 28.9608 16.7394 28.8325 16.6272C28.7041 16.5151 28.5456 16.4432 28.3768 16.4204C28.255 16.4204 25.3324 16.0594 20.7701 18.7863C17.3517 20.8347 16.1513 22.7484 16.1165 22.8266C16.0402 22.9589 16 23.1089 16 23.2616C16 23.4142 16.0402 23.5642 16.1165 23.6965C16.3068 24.0574 16.4528 24.44 16.5514 24.8359C17.2952 28.2544 15.7382 29.9244 19.6306 36.9614C20.3526 38.2661 21.666 40.4929 22.749 42.2456C24.0537 44.3201 26.0848 46.5599 28.0984 45.1769L28.9682 46.9774C30.0033 49.152 32.3345 49.2216 33.6044 47.9386C33.9492 48.5383 34.5065 48.9869 35.166 49.1955C35.8256 49.404 36.5395 49.3575 37.1664 49.065C37.7051 48.8152 38.1453 48.3933 38.4178 47.8657C38.6902 47.3382 38.7794 46.7349 38.6712 46.1511C39.0047 46.122 39.3296 46.029 39.628 45.8771C41.0154 45.1551 41.4677 43.7025 40.8718 42.1629C37.0837 32.5687 35.4572 29.1416 36.0878 29.3591C36.8846 29.895 37.7222 30.3676 38.5929 30.7725C40.2195 31.4466 42.3854 31.3249 43.377 29.7766C44.3686 28.2283 44.0859 26.6321 42.3158 25.7667ZM41.9069 28.8502C41.4285 29.5896 40.1673 29.5722 39.2453 29.1807C37.2882 28.3675 36.6749 27.0888 35.1962 27.876C34.7928 28.1041 34.4872 28.4723 34.3372 28.9109C34.1873 29.3494 34.2036 29.8277 34.3829 30.255C34.6221 30.9682 38.7321 41.7106 39.2453 42.8675C39.4453 43.3328 39.5323 43.9678 38.8104 44.3462C38.7214 44.3962 38.623 44.4272 38.5213 44.4371C38.4197 44.447 38.3172 44.4357 38.2202 44.4038C38.1232 44.3718 38.034 44.3201 37.9581 44.2518C37.8823 44.1834 37.8215 44.1001 37.7796 44.007L33.5609 35.2043C33.4538 35.0093 33.276 34.8627 33.0641 34.7947C32.8522 34.7268 32.6223 34.7427 32.4218 34.839C32.2212 34.9354 32.0652 35.105 31.9859 35.3129C31.9065 35.5208 31.9099 35.7512 31.9952 35.9567L36.7793 45.9032C37.1359 46.6425 37.0011 47.2079 36.4183 47.508C36.169 47.6168 35.8868 47.6231 35.6328 47.5254C35.3789 47.4277 35.1736 47.234 35.0614 46.9861L30.0338 36.496C29.9844 36.3929 29.9152 36.3006 29.8301 36.2242C29.745 36.1479 29.6457 36.0891 29.5378 36.0511C29.43 36.0131 29.3158 35.9968 29.2016 36.003C29.0875 36.0092 28.9757 36.0378 28.8726 36.0872C28.7695 36.1366 28.6771 36.2058 28.6008 36.2909C28.5245 36.376 28.4656 36.4753 28.4277 36.5831C28.3897 36.6909 28.3733 36.8052 28.3795 36.9193C28.3857 37.0335 28.4143 37.1453 28.4637 37.2484L32.5693 45.8162C33.0043 46.7295 31.3168 47.8516 30.5426 46.2511L29.0813 43.2067L25.9804 36.7656C25.931 36.6626 25.8618 36.5702 25.7767 36.4939C25.6916 36.4175 25.5923 36.3587 25.4844 36.3207C25.3766 36.2828 25.2624 36.2664 25.1482 36.2726C25.0341 36.2788 24.9223 36.3074 24.8192 36.3568C24.7161 36.4062 24.6237 36.4755 24.5474 36.5605C24.4711 36.6456 24.4122 36.7449 24.3743 36.8528C24.3363 36.9606 24.3199 37.0748 24.3261 37.189C24.3323 37.3031 24.3609 37.415 24.4103 37.518L27.3112 43.5634C26.5153 44.6463 24.8366 42.3369 24.2277 41.3496C23.1534 39.61 21.8618 37.4354 21.1485 36.1307C17.4561 29.4504 19.0696 28.2631 18.2476 24.4793C18.1541 24.099 18.023 23.729 17.8562 23.3746C18.9434 22.1377 20.2296 21.0911 21.6617 20.278C24.5626 18.5384 26.6719 18.2035 27.6113 18.147C28.2854 20.2085 28.9596 21.2784 32.5693 21.9612C36.9185 22.7788 37.5795 25.3883 41.546 27.328C42.2723 27.6803 42.4245 28.0456 41.9069 28.8502Z" fill="#121212"/>
<path fill-rule="evenodd" clip-rule="evenodd" d="M56.9985 27.4455C56.9985 27.2425 56.8393 27.085 56.709 26.9561L56.7089 26.956C56.6885 26.9358 56.6688 26.9163 56.6505 26.8975L46.0082 16.2551C45.9274 16.1742 45.8315 16.1101 45.7259 16.0663C45.6203 16.0225 45.5071 16 45.3928 16C45.2785 16 45.1653 16.0225 45.0597 16.0663C44.9541 16.1101 44.8581 16.1742 44.7774 16.2551L37.6029 23.4308C37.8565 23.6372 38.1058 23.8489 38.358 24.063L38.358 24.063L38.3581 24.0631C38.5495 24.2256 38.7426 24.3895 38.9404 24.5536L45.3993 18.0948L54.8239 27.515L47.1433 35.1739C47.0624 35.2547 46.9983 35.3506 46.9545 35.4562C46.9107 35.5618 46.8882 35.675 46.8882 35.7893C46.8882 35.9036 46.9107 36.0168 46.9545 36.1224C46.9983 36.228 47.0624 36.3239 47.1433 36.4047L54.8239 44.0679L52.6189 46.2699C52.7065 46.4039 52.794 46.5386 52.8812 46.6731C53.1177 47.0373 53.3531 47.4 53.5881 47.7427L56.6505 44.6811C56.8369 44.4864 56.9585 44.2388 56.9985 43.9722V27.4455ZM49.7115 51.6184C49.5502 51.0036 49.3331 50.4024 49.0616 49.8226L38.2971 60.5729L20.6092 42.8849L22.8005 40.6936C22.497 40.1922 22.1844 39.67 21.8802 39.1561L18.7651 42.2717C18.6031 42.4346 18.5122 42.6551 18.5122 42.8849C18.5122 43.1147 18.6031 43.3352 18.7651 43.4981L37.6839 62.4169C37.8469 62.5789 38.0673 62.6698 38.2971 62.6698C38.5269 62.6698 38.7474 62.5789 38.9104 62.4169L49.7115 51.6184ZM55.2588 41.9759L48.9873 35.7915L55.2588 29.5156V41.9759Z" fill="#121212"/>
<path d="M64.1093 58.2722C62.9612 56.1977 63.3439 50.8091 63.6744 45.0465C63.7701 43.3503 63.109 42.524 62.4915 41.5671C61.9435 40.6973 58.5555 38.9577 56.7288 37.2571C56.5604 37.0991 56.3362 37.0145 56.1053 37.0218C55.8745 37.0291 55.6561 37.1279 55.498 37.2963C55.34 37.4647 55.2554 37.689 55.2627 37.9198C55.27 38.1506 55.3688 38.3691 55.5372 38.5271C57.3334 40.2102 60.5952 42.0064 61.0214 42.5022C61.4999 43.2503 62.0044 43.7678 61.9391 44.9551C61.5042 52.6662 61.3433 56.2629 62.4219 58.768C62.2131 59.2594 61.4694 60.5077 59.1122 61.6254C55.8112 62.7431 53.828 62.0603 52.9929 61.6254C53.1956 60.9037 53.1371 60.1336 52.8277 59.4508C52.5406 58.868 50.9097 57.1806 50.8836 55.293C50.8227 51.0439 49.2614 48.6041 47.8392 46.4469C46.6519 44.6637 46.5127 44.3245 47.1825 43.5764C47.9305 42.7458 49.892 43.8417 50.7749 44.6507C52.2144 45.9554 53.3452 49.0738 55.0414 50.2219C57.0028 51.5267 58.612 51.444 58.7903 51.4266C59.021 51.4053 59.2338 51.2932 59.3818 51.115C59.5299 50.9368 59.601 50.7071 59.5797 50.4764C59.5584 50.2457 59.4463 50.0329 59.268 49.8849C59.0898 49.7368 58.8601 49.6656 58.6294 49.687C58.1831 49.6838 57.7411 49.5998 57.3247 49.4391C57.5552 49.0042 57.8857 48.3214 58.2684 47.3732C58.3389 47.1633 58.3267 46.9344 58.2342 46.7331C58.1417 46.5319 57.9759 46.3735 57.7706 46.2903C57.5654 46.2071 57.3361 46.2053 57.1296 46.2853C56.9231 46.3653 56.7549 46.5211 56.6593 46.7209C56.3113 47.5907 56.0069 48.1996 55.7894 48.591C54.6282 47.5429 53.4409 44.7333 51.9491 43.372C50.2095 41.7716 47.413 40.7191 45.8908 42.4109C44.2642 44.2158 45.2993 45.7684 46.3909 47.4124C47.7566 49.4652 49.1004 51.5528 49.157 55.3191C49.1918 57.7807 51.0663 59.8466 51.2837 60.225C51.3656 60.4471 51.398 60.6844 51.3784 60.9203C51.3589 61.1562 51.288 61.385 51.1706 61.5906C51.0861 61.7598 51.0591 61.952 51.0936 62.138C51.1281 62.324 51.2224 62.4937 51.362 62.6213C51.4403 62.6953 52.8972 64 55.7851 64C57.16 63.9784 58.5214 63.7255 59.8124 63.252C63.6918 61.4601 64.1615 59.1377 64.2268 58.8767C64.2588 58.6677 64.2173 58.454 64.1093 58.2722Z" fill="#121212"/>
</g>
<defs>
<clipPath id="clip0_646_9241">
<rect width="48" height="48" fill="white" transform="translate(16 16)"/>
</clipPath>
</defs>
</svg>
