<svg width="80" height="80" viewBox="0 0 80 80" fill="none" xmlns="http://www.w3.org/2000/svg">
<path d="M71.7631 56.2713C61.468 76.1998 38.9748 84.9427 21.5758 75.9826C4.17748 67.0229 -1.72742 43.6569 8.5676 23.7287C18.8628 3.80018 41.3559 -4.94269 58.7549 4.01737C76.1532 12.9771 82.0581 36.3431 71.7631 56.2713Z" fill="white" stroke="#121212"/>
<path d="M28.75 34.8685C28.336 34.8685 28 34.5325 28 34.1185V31.402C28 31.1665 28.1095 30.946 28.297 30.805C29.062 30.226 29.5 29.356 29.5 28.4185V26.1685C29.5 24.514 28.1545 23.1685 26.5 23.1685C24.8455 23.1685 23.5 24.514 23.5 26.1685V28.4185C23.5 29.356 23.938 30.226 24.703 30.805C24.8905 30.946 25 31.168 25 31.4035V34.12C25 34.534 24.664 34.87 24.25 34.87C23.836 34.87 23.5 34.5325 23.5 34.1185V31.756C22.5415 30.8995 22 29.7025 22 28.4185V26.1685C22 23.6875 24.019 21.6685 26.5 21.6685C28.981 21.6685 31 23.6875 31 26.1685V28.4185C31 29.7025 30.4585 30.898 29.5 31.756V34.1185C29.5 34.5325 29.164 34.8685 28.75 34.8685Z" fill="#121212"/>
<path d="M27.2545 32.8435C26.9065 32.8435 26.5945 32.599 26.521 32.245C26.4385 31.8385 26.6995 31.4425 27.106 31.36C28.492 31.0735 29.5 29.8375 29.5 28.4185C29.5 28.0045 29.836 27.6685 30.25 27.6685C30.664 27.6685 31 28.0045 31 28.4185C31 30.5455 29.488 32.3995 27.406 32.827C27.355 32.8375 27.3055 32.8435 27.2545 32.8435Z" fill="#121212"/>
<path d="M31.561 36.0444C31.462 36.0444 31.3615 36.0249 31.2655 35.9829L28.4545 34.7754C28.0735 34.6119 27.898 34.1709 28.0615 33.7899C28.2235 33.4074 28.6645 33.2349 29.0455 33.3969L31.8565 34.6044C32.2375 34.7679 32.413 35.2089 32.2495 35.5899C32.128 35.8749 31.8505 36.0444 31.561 36.0444Z" fill="#121212"/>
<path d="M22 45.1239C21.8965 45.1239 21.79 45.1029 21.6895 45.0564L18.8185 43.7514C18.0175 43.3854 17.5 42.5814 17.5 41.7024V39.6234C17.5 37.5204 18.745 35.6304 20.671 34.8084L23.9515 33.3849C24.3355 33.2199 24.7735 33.3939 24.9385 33.7734C25.102 34.1529 24.928 34.5954 24.5485 34.7604L21.265 36.1854C19.888 36.7749 19 38.1234 19 39.6234V41.7024C19 41.9949 19.1725 42.2649 19.4395 42.3864L22.3105 43.6914C22.687 43.8624 22.8535 44.3079 22.6825 44.6844C22.5565 44.9604 22.2835 45.1239 22 45.1239Z" fill="#121212"/>
<path d="M29.4085 27.5335C27.9145 27.5335 26.4865 27.019 25.279 26.0455C24.958 25.786 24.907 25.315 25.165 24.9925C25.4275 24.67 25.9 24.6205 26.2195 24.88C27.1825 25.6555 28.3255 26.074 29.497 26.0335C29.425 24.4405 28.108 23.1685 26.5 23.1685C24.8455 23.1685 23.5 24.514 23.5 26.1685V26.7235C23.5 27.1375 23.164 27.4735 22.75 27.4735C22.336 27.4735 22 27.139 22 26.7235V26.1685C22 23.6875 24.019 21.6685 26.5 21.6685C28.981 21.6685 31 23.6875 31 26.1685V26.6935C31 27.0625 30.7315 27.376 30.3685 27.4345C30.022 27.49 29.722 27.5335 29.4085 27.5335Z" fill="#121212"/>
<path d="M55.75 34.8684C55.336 34.8684 55 34.5324 55 34.1184V31.4019C55 31.1664 55.1095 30.9459 55.297 30.8049C56.062 30.2259 56.5 29.3559 56.5 28.4184V26.1684C56.5 24.5139 55.1545 23.1684 53.5 23.1684C51.8455 23.1684 50.5 24.5139 50.5 26.1684V28.4184C50.5 29.3559 50.938 30.2259 51.703 30.8049C51.8905 30.9459 52 31.1679 52 31.4034V34.1199C52 34.5339 51.664 34.8699 51.25 34.8699C50.836 34.8699 50.5 34.5339 50.5 34.1199V31.7574C49.5415 30.9009 49 29.7039 49 28.4199V26.1699C49 23.6889 51.019 21.6699 53.5 21.6699C55.981 21.6699 58 23.6889 58 26.1699V28.4199C58 29.7039 57.4585 30.8994 56.5 31.7574V34.1199C56.5 34.5324 56.164 34.8684 55.75 34.8684Z" fill="#121212"/>
<path d="M54.2545 32.8435C53.9065 32.8435 53.5945 32.599 53.521 32.245C53.4385 31.8385 53.6995 31.4425 54.106 31.36C55.492 31.0735 56.5 29.8375 56.5 28.4185C56.5 28.0045 56.836 27.6685 57.25 27.6685C57.664 27.6685 58 28.0045 58 28.4185C58 30.5455 56.488 32.3995 54.406 32.827C54.355 32.8375 54.3055 32.8435 54.2545 32.8435Z" fill="#121212"/>
<path d="M48.6595 35.9499C48.37 35.9499 48.0925 35.7804 47.971 35.4954C47.8075 35.1159 47.983 34.6734 48.364 34.5099L50.9545 33.3969C51.3325 33.2364 51.775 33.4074 51.9385 33.7899C52.102 34.1694 51.9265 34.6119 51.5455 34.7754L48.955 35.8884C48.859 35.9304 48.76 35.9499 48.6595 35.9499Z" fill="#121212"/>
<path d="M58 45.1239C57.7165 45.1239 57.4435 44.9604 57.3175 44.6844C57.1465 44.3079 57.313 43.8624 57.6895 43.6914L60.5606 42.3864C60.8276 42.2649 61 41.9964 61 41.7024V39.6234C61 38.1234 60.1121 36.7749 58.7395 36.1884L55.4516 34.7604C55.0721 34.5954 54.8981 34.1544 55.0616 33.7734C55.2266 33.3924 55.6615 33.2184 56.0485 33.3849L59.3321 34.8099C61.2551 35.6304 62.5 37.5204 62.5 39.6234V41.7024C62.5 42.5814 61.9826 43.3854 61.1816 43.7514L58.3106 45.0564C58.2101 45.1014 58.1035 45.1239 58 45.1239Z" fill="#121212"/>
<path d="M41.965 25.2925C39.832 25.2925 37.612 24.541 36.388 23.44C36.079 23.1625 36.0535 22.6885 36.331 22.381C36.6085 22.0735 37.087 22.048 37.39 22.3255C38.869 23.6545 42.412 24.349 44.4415 23.26C44.806 23.0635 45.262 23.2 45.457 23.566C45.6535 23.932 45.5155 24.385 45.151 24.5815C44.2255 25.075 43.108 25.2925 41.965 25.2925Z" fill="#121212"/>
<path d="M39.9895 38.9185C37.501 38.9185 36.2035 36.9775 35.8645 35.95C35.734 35.5555 35.9485 35.1325 36.3415 35.002C36.7345 34.873 37.156 35.086 37.2865 35.476C37.318 35.566 37.9825 37.417 39.9895 37.417C42.013 37.417 42.7255 35.509 42.757 35.428C42.8965 35.0395 43.3315 34.837 43.714 34.975C44.1025 35.113 44.308 35.5375 44.1715 35.9275C44.128 36.0505 43.0915 38.9185 39.9895 38.9185Z" fill="#121212"/>
<path d="M54.25 44.9185C53.836 44.9185 53.5 44.5825 53.5 44.1685V43.75C53.5 41.5255 52.0975 39.5365 50.011 38.803L43.7545 36.583C42.8545 36.2695 42.25 35.4175 42.25 34.465V32.62C42.25 32.206 42.586 31.87 43 31.87C43.414 31.87 43.75 32.206 43.75 32.62V34.465C43.75 34.78 43.9525 35.062 44.2525 35.167L50.5105 37.3885C53.1955 38.332 55 40.8895 55 43.75V44.17C55 44.584 54.664 44.9185 54.25 44.9185Z" fill="#121212"/>
<path d="M25.75 44.9184C25.336 44.9184 25 44.5824 25 44.1684V43.7634C25 43.2954 25.0495 42.8259 25.147 42.3624C25.63 40.0779 27.301 38.1729 29.503 37.3869L35.746 35.1969C36.0475 35.0919 36.25 34.8084 36.25 34.4934V32.6184C36.25 32.2044 36.586 31.8684 37 31.8684C37.414 31.8684 37.75 32.2044 37.75 32.6184V34.4934C37.75 35.4444 37.1455 36.2964 36.2425 36.6129L30.004 38.8014C28.2895 39.4119 26.9905 40.8954 26.614 42.6729C26.5375 43.0329 26.5 43.4004 26.5 43.7634V44.1684C26.5 44.5839 26.164 44.9184 25.75 44.9184Z" fill="#121212"/>
<path d="M40 34.4185C39.586 34.4185 39.25 34.0825 39.25 33.6685C39.25 33.2545 39.586 32.9185 40 32.9185C41.557 32.9185 44.5 31.5085 44.5 26.1685V23.9185C44.5 21.4375 42.481 19.4185 40 19.4185C37.519 19.4185 35.5 21.4375 35.5 23.9185V26.1685C35.5 28.7545 36.1915 30.733 37.498 31.8895C37.8085 32.164 37.8385 32.638 37.5625 32.9485C37.285 33.2605 36.8125 33.286 36.505 33.013C35.362 32.002 34 29.995 34 26.1685V23.9185C34 20.6095 36.691 17.9185 40 17.9185C43.309 17.9185 46 20.6095 46 23.9185V26.1685C46 32.695 42.076 34.4185 40 34.4185Z" fill="#121212"/>
<path d="M51.427 58.4185C51.151 58.4185 50.887 58.2655 50.755 58.0015C50.572 57.6295 50.7235 57.181 51.0955 56.9965L54.805 55.159C55.0135 55.0555 55.2625 55.0555 55.4695 55.159L57.8935 56.3605L57.499 53.6845C57.466 53.4535 57.541 53.218 57.706 53.0515L59.6005 51.115L56.9305 50.6605C56.701 50.6215 56.5015 50.476 56.392 50.269L55.138 47.872L53.8825 50.269C53.773 50.476 53.5735 50.6215 53.344 50.6605L50.6755 51.115L52.5685 53.0515C52.858 53.3485 52.852 53.8225 52.5565 54.112C52.2595 54.403 51.784 54.397 51.496 54.1L48.6025 51.1405C48.4075 50.941 48.3385 50.65 48.4255 50.3845C48.5125 50.119 48.7375 49.924 49.0135 49.8775L52.7275 49.2445L54.475 45.9085C54.6055 45.661 54.862 45.5065 55.1395 45.5065C55.42 45.5065 55.6735 45.6625 55.804 45.9085L57.55 49.2445L61.2655 49.8775C61.5415 49.924 61.7665 50.1205 61.8535 50.3845C61.9405 50.6485 61.8715 50.941 61.6765 51.1405L59.041 53.833L59.59 57.559C59.629 57.835 59.5135 58.111 59.2885 58.2745C59.0635 58.4395 58.7635 58.465 58.5145 58.339L55.1395 56.6665L51.763 58.339C51.6535 58.3945 51.5395 58.4185 51.427 58.4185Z" fill="#121212"/>
<path d="M35.6139 62.5C35.4579 62.5 35.3034 62.452 35.1729 62.3575C34.9479 62.194 34.8309 61.918 34.8714 61.6405L35.5284 57.166L32.3664 53.932C32.1714 53.7325 32.1024 53.4415 32.1894 53.176C32.2764 52.9105 32.5014 52.714 32.7774 52.669L37.2384 51.91L39.3354 47.9035C39.5964 47.4085 40.4049 47.4085 40.6659 47.9035L42.7629 51.91L47.2239 52.669C47.4999 52.7155 47.7249 52.912 47.8119 53.176C47.8989 53.44 47.8299 53.7325 47.6349 53.932L44.4714 57.166L45.1299 61.6405C45.1689 61.9165 45.0534 62.1925 44.8284 62.356C44.6034 62.5225 44.3034 62.545 44.0544 62.4205L39.9999 60.412L35.9469 62.4205C35.8419 62.473 35.7279 62.5 35.6139 62.5ZM34.4394 53.9065L36.8604 56.383C37.0239 56.551 37.1004 56.785 37.0674 57.016L36.5634 60.4405L39.6669 58.903C39.8754 58.798 40.1244 58.798 40.3314 58.903L43.4334 60.4405L42.9294 57.016C42.8964 56.785 42.9714 56.5495 43.1364 56.383L45.5589 53.9065L42.1434 53.3245C41.9139 53.2855 41.7144 53.14 41.6049 52.933L39.9999 49.8655L38.3949 52.933C38.2854 53.14 38.0859 53.2855 37.8564 53.3245L34.4394 53.9065Z" fill="#121212"/>
<path d="M28.6945 58.4184C28.582 58.4184 28.4695 58.3929 28.3615 58.3404L24.9865 56.6679L21.61 58.3419C21.3625 58.4649 21.064 58.4409 20.836 58.2759C20.611 58.1124 20.494 57.8364 20.5345 57.5604L21.0835 53.8344L18.448 51.1419C18.253 50.9424 18.184 50.6514 18.271 50.3859C18.358 50.1204 18.583 49.9239 18.859 49.8789L22.5745 49.2459L24.322 45.9099C24.4525 45.6624 24.709 45.5079 24.9865 45.5079C25.267 45.5079 25.5205 45.6639 25.651 45.9099L27.397 49.2459L31.111 49.8789C31.387 49.9254 31.612 50.1219 31.699 50.3859C31.786 50.6499 31.717 50.9424 31.522 51.1419L28.6285 54.0999C28.342 54.3969 27.8665 54.4029 27.568 54.1119C27.2725 53.8224 27.2665 53.3484 27.556 53.0514L29.449 51.1149L26.7805 50.6604C26.5495 50.6214 26.3515 50.4759 26.242 50.2689L24.988 47.8719L23.7325 50.2689C23.623 50.4759 23.4235 50.6214 23.194 50.6604L20.524 51.1149L22.4185 53.0514C22.582 53.2194 22.6585 53.4534 22.6255 53.6844L22.231 56.3604L24.6565 55.1589C24.865 55.0554 25.114 55.0554 25.321 55.1589L29.029 56.9964C29.401 57.1809 29.5525 57.6294 29.3695 58.0014C29.2345 58.2654 28.969 58.4184 28.6945 58.4184Z" fill="#121212"/>
</svg>
