<svg xmlns="http://www.w3.org/2000/svg" version="1.1" xmlns:xlink="http://www.w3.org/1999/xlink" xmlns:svgjs="http://svgjs.dev/svgjs" width="1500" height="1500" viewBox="0 0 1500 1500"><rect width="1500" height="1500" fill="#ffffff"></rect><g transform="matrix(0.6666666666666666,0,0,0.6666666666666666,249.39393939393938,597.2401628281905)"><svg viewBox="0 0 396 121" data-background-color="#ffffff" preserveAspectRatio="xMidYMid meet" height="458" width="1500" xmlns="http://www.w3.org/2000/svg" xmlns:xlink="http://www.w3.org/1999/xlink"><g id="tight-bounds" transform="matrix(1,0,0,1,0.2400000000000091,0.03692237267128462)"><svg viewBox="0 0 395.52 120.9261552546574" height="120.9261552546574" width="395.52"><g><svg viewBox="0 0 703.1832433883944 214.99101451875643" height="120.9261552546574" width="395.52"><g><rect width="10.140461567744202" height="214.99101451875643" x="270.9770709103251" y="0" fill="#152232" opacity="1" stroke-width="0" stroke="transparent" fill-opacity="1" class="rect-qz-0" data-fill-palette-color="primary" rx="1%" id="qz-0" data-palette-color="#152232"></rect></g><g transform="matrix(1,0,0,1,307.6632433883944,0.534803518703356)"><svg viewBox="0 0 395.52 213.92140748134972" height="213.92140748134972" width="395.52"><g id="textblocktransform"><svg viewBox="0 0 395.52 213.92140748134972" height="213.92140748134972" width="395.52" id="textblock"><g><svg viewBox="0 0 395.52 112.44561459159397" height="112.44561459159397" width="395.52"><g transform="matrix(1,0,0,1,0,0)"><svg width="395.52" viewBox="2 -35.35 126.09 35.85" height="112.44561459159397" data-palette-color="#152232"><path d="M11.2-0.05L2.25 0Q2 0 2-0.25L2-0.25 2.1-34.6Q2.1-34.8 2.3-34.8L2.3-34.8 11.65-34.85Q14.4-34.9 16.68-33.55 18.95-32.2 20.3-29.93 21.65-27.65 21.65-24.9L21.65-24.9 21.65-10.55Q21.65-7.65 20.25-5.28 18.85-2.9 16.5-1.5 14.15-0.1 11.2-0.05L11.2-0.05ZM8.15-28.8L8.1-6.15 11.2-6.15Q13.05-6.15 14.33-7.45 15.6-8.75 15.6-10.55L15.6-10.55 15.6-24.95Q15.6-26.55 14.43-27.73 13.25-28.9 11.65-28.85L11.65-28.85 8.15-28.8ZM41.95 0L25.8 0Q25.6 0 25.6-0.25L25.6-0.25 25.65-34.6Q25.65-34.8 25.85-34.8L25.85-34.8 41.9-34.8Q42.1-34.8 42.1-34.55L42.1-34.55 42.1-28.95Q42.1-28.75 41.9-28.75L41.9-28.75 31.65-28.75 31.65-20.95 41.9-20.95Q42.1-20.95 42.1-20.75L42.1-20.75 42.15-15.1Q42.15-14.9 41.95-14.9L41.95-14.9 31.65-14.9 31.65-6.15 41.95-6.15Q42.15-6.15 42.15-5.9L42.15-5.9 42.15-0.2Q42.15 0 41.95 0L41.95 0ZM58.24 0L52.2 0Q51.99 0 51.95-0.25L51.95-0.25 45.05-34.6Q44.99-34.8 45.24-34.8L45.24-34.8 50.89-34.8Q51.09-34.8 51.14-34.6L51.14-34.6 55.24-11.7 59.24-34.6Q59.3-34.8 59.49-34.8L59.49-34.8 65.09-34.8Q65.34-34.8 65.3-34.6L65.3-34.6 58.49-0.25Q58.45 0 58.24 0L58.24 0ZM72.84 0.5L72.84 0.5Q70.04 0.5 67.82-0.83 65.59-2.15 64.32-4.48 63.04-6.8 63.04-9.7L63.04-9.7 63.04-12Q63.04-12.2 63.24-12.2L63.24-12.2 68.89-12.2Q69.09-12.2 69.09-11.95L69.09-11.95 69.09-9.7Q69.09-7.85 70.14-6.7 71.19-5.55 72.84-5.55L72.84-5.55Q74.34-5.55 75.44-6.8 76.54-8.05 76.54-9.7L76.54-9.7 76.54-34.55Q76.54-34.75 76.74-34.75L76.74-34.75 82.34-34.75Q82.54-34.75 82.54-34.5L82.54-34.5 82.59-9.7Q82.59-6.95 81.27-4.63 79.94-2.3 77.74-0.9 75.54 0.5 72.84 0.5ZM94.64 0.5L94.64 0.5Q91.94 0.5 89.72-0.88 87.49-2.25 86.14-4.53 84.79-6.8 84.79-9.55L84.79-9.55 84.84-25.4Q84.84-28.15 86.17-30.4 87.49-32.65 89.74-34 91.99-35.35 94.64-35.35L94.64-35.35Q97.34-35.35 99.54-34 101.74-32.65 103.07-30.4 104.39-28.15 104.39-25.4L104.39-25.4 104.44-9.55Q104.44-6.8 103.12-4.53 101.79-2.25 99.57-0.88 97.34 0.5 94.64 0.5ZM94.64-5.55L94.64-5.55Q96.14-5.55 97.27-6.78 98.39-8 98.39-9.55L98.39-9.55 98.34-25.4Q98.34-27.05 97.29-28.2 96.24-29.35 94.64-29.35L94.64-29.35Q93.09-29.35 91.99-28.23 90.89-27.1 90.89-25.4L90.89-25.4 90.89-9.55Q90.89-7.9 91.99-6.73 93.09-5.55 94.64-5.55ZM117.39 0L108.44 0Q108.24 0 108.24-0.25L108.24-0.25 108.34-34.6Q108.34-34.8 108.54-34.8L108.54-34.8 118.14-34.8Q120.99-34.8 123.24-33.43 125.49-32.05 126.79-29.8 128.09-27.55 128.09-24.9L128.09-24.9Q128.09-22.75 127.11-20.9 126.14-19.05 124.79-17.9L124.79-17.9Q126.24-16.45 127.04-14.55 127.84-12.65 127.84-10.55L127.84-10.55Q127.84-7.65 126.44-5.25 125.04-2.85 122.66-1.43 120.29 0 117.39 0L117.39 0ZM114.34-28.85L114.34-21 118.14-21Q119.89-21 120.96-22.23 122.04-23.45 122.04-24.9L122.04-24.9Q122.04-26.5 120.89-27.68 119.74-28.85 118.14-28.85L118.14-28.85 114.34-28.85ZM114.34-14.95L114.29-6.1 117.39-6.1Q119.19-6.1 120.49-7.43 121.79-8.75 121.79-10.55L121.79-10.55Q121.79-12.35 120.49-13.65 119.19-14.95 117.39-14.95L117.39-14.95 114.34-14.95Z" opacity="1" transform="matrix(1,0,0,1,0,0)" fill="#152232" class="wordmark-text-0" data-fill-palette-color="primary" id="text-0"></path></svg></g></svg></g><g transform="matrix(1,0,0,1,0,138.9913255019191)"><svg viewBox="0 0 395.52 74.93008197943062" height="74.93008197943062" width="395.52"><g transform="matrix(1,0,0,1,0,0)"><svg width="395.52" viewBox="3 -52.7 335.41 63.550000000000004" height="74.93008197943062" data-palette-color="#5ebc67"><path d="M10.7-34.55Q15.05-34.55 18.23-33.23 21.4-31.9 23.38-28.13 25.35-24.35 25.35-17.45L25.35-17.45Q25.35-7.7 21.48-3.85 17.6 0 11.35 0L11.35 0 3 0 3-34.55 10.7-34.55ZM11.65-29.8L9.35-29.8 9.35-4.75 11.7-4.75Q13.95-4.75 15.48-5.8 17-6.85 17.88-9.65 18.75-12.45 18.75-17.45L18.75-17.45Q18.75-22.55 17.82-25.25 16.9-27.95 15.38-28.88 13.85-29.8 11.65-29.8L11.65-29.8ZM30.1-34.55L47.25-34.55 46.6-29.8 36.45-29.8 36.45-19.9 45.3-19.9 45.3-15.2 36.45-15.2 36.45-4.8 47.25-4.8 47.25 0 30.1 0 30.1-34.55ZM38.75-40.2L33.3-36.1 31.1-38.45 36.85-44.6 40.6-44.6 46.35-38.45 44.1-36.1 38.75-40.2ZM41.2-46.3Q40.35-46.3 39.67-46.63 39-46.95 38.15-47.5L38.15-47.5Q38.05-47.55 37.65-47.8 37.25-48.05 36.92-48.18 36.6-48.3 36.3-48.3L36.3-48.3Q35.65-48.3 35.2-47.85 34.75-47.4 34.1-46.3L34.1-46.3 31.1-47.65Q31.9-49.85 33.2-51.15 34.5-52.45 36.2-52.45L36.2-52.45Q37.05-52.45 37.72-52.13 38.4-51.8 39.25-51.25L39.25-51.25Q39.9-50.8 40.27-50.6 40.65-50.4 41.1-50.4L41.1-50.4Q41.75-50.4 42.22-50.88 42.7-51.35 43.25-52.4L43.25-52.4 46.3-51.05Q45.5-48.75 44.17-47.53 42.85-46.3 41.2-46.3L41.2-46.3ZM69.29-34.55Q73.64-34.55 76.82-33.23 79.99-31.9 81.97-28.13 83.94-24.35 83.94-17.45L83.94-17.45Q83.94-7.7 80.07-3.85 76.19 0 69.94 0L69.94 0 61.59 0 61.59-34.55 69.29-34.55ZM70.24-29.8L67.94-29.8 67.94-4.75 70.29-4.75Q72.54-4.75 74.07-5.8 75.59-6.85 76.47-9.65 77.34-12.45 77.34-17.45L77.34-17.45Q77.34-22.55 76.42-25.25 75.49-27.95 73.97-28.88 72.44-29.8 70.24-29.8L70.24-29.8ZM110.64 0L104.19 0 102.49-8.1 93.59-8.1 91.94 0 85.59 0 94.29-34.55 101.99-34.55 110.64 0ZM98.04-29.7L94.59-12.9 101.54-12.9 98.04-29.7ZM92.34-41.75L94.74-46.4 103.59-40.75 101.99-37.65 92.34-41.75ZM135.14-34.55L135.14 0 127.04 0 118.29-28.3Q118.69-24.7 118.91-21.68 119.14-18.65 119.14-14.5L119.14-14.5 119.14 0 113.54 0 113.54-34.55 121.59-34.55 130.34-6.25Q130.04-8.05 129.76-11.35 129.49-14.65 129.49-18.05L129.49-18.05 129.49-34.55 135.14-34.55ZM153.39-35.25Q156.24-35.25 158.49-34.23 160.74-33.2 162.74-31.25L162.74-31.25 159.54-27.95Q157.99-29.3 156.64-29.88 155.29-30.45 153.59-30.45L153.59-30.45Q150.29-30.45 148.41-27.5 146.54-24.55 146.54-17.3L146.54-17.3Q146.54-12.2 147.21-9.33 147.89-6.45 149.21-5.3 150.54-4.15 152.69-4.15L152.69-4.15Q154.94-4.15 156.79-5.4L156.79-5.4 156.79-14.75 152.89-14.75 152.24-19.5 162.84-19.5 162.84-2.6Q160.69-1.05 158.06-0.18 155.44 0.7 152.74 0.7L152.74 0.7Q146.29 0.7 143.09-3.68 139.89-8.05 139.89-17.3L139.89-17.3Q139.89-23.3 141.66-27.33 143.44-31.35 146.49-33.3 149.54-35.25 153.39-35.25L153.39-35.25ZM175.28-34.55L196.83-34.55 196.13-29.55 189.03-29.55 189.03 0 182.68 0 182.68-29.55 175.28-29.55 175.28-34.55ZM199.88-34.55L206.23-34.55 206.23 0 199.88 0 199.88-34.55ZM212.23-34.55L229.38-34.55 228.73-29.8 218.58-29.8 218.58-19.9 227.43-19.9 227.43-15.2 218.58-15.2 218.58-4.8 229.38-4.8 229.38 0 212.23 0 212.23-34.55ZM220.88-40.2L215.43-36.1 213.23-38.45 218.98-44.6 222.73-44.6 228.48-38.45 226.23-36.1 220.88-40.2ZM224.93-44.7L230.38-52.7 234.13-49.55 227.38-42.65 224.93-44.7ZM241.77-34.55Q248.02-34.55 251.3-31.78 254.57-29 254.57-23.6L254.57-23.6Q254.57-17.85 251.35-15 248.12-12.15 242.22-12.15L242.22-12.15 240.22-12.15 240.22 0 233.87 0 233.87-34.55 241.77-34.55ZM241.87-16.9Q245.12-16.9 246.57-18.4 248.02-19.9 248.02-23.55L248.02-23.55Q248.02-26.85 246.57-28.35 245.12-29.85 241.92-29.85L241.92-29.85 240.22-29.85 240.22-16.9 241.87-16.9ZM279.67-35.25Q282.32-35.25 284.34-34.38 286.37-33.5 288.27-31.7L288.27-31.7 285.22-28.05Q283.92-29.25 282.69-29.83 281.47-30.4 280.02-30.4L280.02-30.4Q277.02-30.4 275.32-27.4 273.62-24.4 273.62-17.35L273.62-17.35Q273.62-10.4 275.32-7.38 277.02-4.35 280.12-4.35L280.12-4.35Q281.67-4.35 282.82-4.98 283.97-5.6 285.52-6.9L285.52-6.9 288.57-3.4Q286.97-1.6 284.72-0.43 282.47 0.75 279.67 0.75L279.67 0.75Q273.82 0.75 270.37-3.8 266.92-8.35 266.92-17.35L266.92-17.35Q266.92-23.3 268.57-27.3 270.22-31.3 273.09-33.27 275.97-35.25 279.67-35.25L279.67-35.25ZM313.92 0L307.47 0 305.77-8.1 296.87-8.1 295.22 0 288.87 0 297.57-34.55 305.27-34.55 313.92 0ZM301.32-29.7L297.87-12.9 304.82-12.9 301.32-29.7ZM301.42-42.1L295.97-38 293.77-40.35 299.52-46.5 303.27-46.5 309.02-40.35 306.77-38 301.42-42.1ZM301.42 10.85Q299.77 10.85 298.74 9.8 297.72 8.75 297.72 7.1L297.72 7.1Q297.72 5.5 298.74 4.45 299.77 3.4 301.42 3.4L301.42 3.4Q303.07 3.4 304.09 4.45 305.12 5.5 305.12 7.1L305.12 7.1Q305.12 8.75 304.09 9.8 303.07 10.85 301.42 10.85L301.42 10.85ZM338.41-34.55L338.41 0 330.31 0 321.56-28.3Q321.96-24.7 322.19-21.68 322.41-18.65 322.41-14.5L322.41-14.5 322.41 0 316.81 0 316.81-34.55 324.86-34.55 333.61-6.25Q333.31-8.05 333.04-11.35 332.76-14.65 332.76-18.05L332.76-18.05 332.76-34.55 338.41-34.55Z" opacity="1" transform="matrix(1,0,0,1,0,0)" fill="#5ebc67" class="slogan-text-1" data-fill-palette-color="secondary" id="text-1"></path></svg></g></svg></g></svg></g></svg></g><g transform="matrix(1,0,0,1,0,52.8579095929878)"><svg viewBox="0 0 244.43135999999996 109.27519533278083" height="109.27519533278083" width="244.43135999999996"><g><svg xmlns="http://www.w3.org/2000/svg" xmlns:xlink="http://www.w3.org/1999/xlink" version="1.0" x="0" y="0" viewBox="5 32.65300000000001 90.02058228862379 40.24449527900199" enable-background="new 0 0 100 100" xml:space="preserve" height="109.27519533278083" width="244.43135999999996" class="icon-icon-0" data-fill-palette-color="accent" id="icon-0"><g fill="#5ebc67" data-fill-palette-color="accent"><path fill="#5ebc67" d="M79.831 68.229c-1.856-2.528-4.197-4.547-6.745-6.347-1.355-0.954-2.818-1.743-4.122-2.777-1.387-1.101-2.801-2.17-4.228-3.216-3.878-2.849-7.881-5.52-11.81-8.298-1.639-1.16-2.377-2.861-2.487-4.833-0.047-0.854 0.358-1.18 1.245-1.098 0.8 0.075 1.592 0.199 2.359 0.443 1.374 0.439 2.775 0.727 4.225 0.736 0.71 0.004 1.387-0.165 1.971-0.547 1.36-0.883 2.504-2.001 3.421-3.343 0.021-0.028-0.018-0.097-0.042-0.201-0.955 0-1.923 0.015-2.89-0.008-0.341-0.008-0.562 0.118-0.789 0.354-0.628 0.655-1.415 1.052-2.281 1.284-1.757 0.468-3.396-0.014-5.188-0.659 1.573-0.155 3.113 0.316 4.447-1.005-1.141 0-2.099-0.036-3.055 0.009-0.949 0.046-1.727 0.779-2.732 0.698 1.096 0.722 2.148 1.433 3.104 2.31-0.525-0.064-1.012-0.284-1.512-0.312-0.753-0.044-1.198-0.495-1.646-0.99-0.11-0.125-0.206-0.26-0.315-0.385-0.95-1.081-1.79-2.261-2.91-3.186-0.203-0.167-0.373-0.441-0.757-0.253 1.011 1.257 1.712 2.691 2.523 4.06-0.036 0.048-0.072 0.096-0.107 0.142-0.983-0.067-1.759-0.45-2.381-1.14-0.142-0.158-0.278-0.333-0.405-0.525-0.428-0.644-0.781-1.35-1.252-1.938-0.657-0.823-1.261-1.68-1.884-2.524-0.212-0.287-0.483-0.44-0.8-0.555-0.984-0.359-1.974-0.706-2.949-1.087-1.347-0.528-2.72-0.375-4.094-0.192-0.948 0.126-1.432 0.768-1.328 1.838 0.08 0.827 0.145 1.668 0.015 2.488-0.135 0.854 0.009 1.665 0.254 2.453 0.449 1.447 0.96 2.875 1.461 4.307 0.567 1.62 1.179 3.238 2.154 4.649 2.021 2.925 4.33 5.624 7.04 7.932 3.181 2.712 6.453 5.316 9.66 7.999 1.868 1.564 3.724 3.151 5.282 5.041 0.695 0.841 1.312 1.719 1.176 2.914 0.264 0.02 0.482 0.049 0.701 0.051 1.773 0.026 3.547 0.05 5.32 0.069 0.797 0.009 0.841-0.057 0.737-0.854-0.044-0.335-0.169-0.638-0.313-0.938-0.276-0.578-0.651-1.089-1.051-1.588-1.42-1.766-3.211-3.131-4.963-4.527-3.829-3.054-7.713-6.038-11.554-9.077-1.454-1.148-2.969-2.231-4.256-3.577-1.34-1.402-2.589-2.883-3.822-4.382-0.966-1.173-1.628-2.455-2.069-3.916-0.446-1.478-0.25-2.844 0.287-4.205 0.361-0.912 1.044-1.201 1.994-0.916 0.792 0.24 1.582 0.491 2.363 0.762 0.798 0.277 1.584 0.589 2.376 0.885-0.238 0.11-0.452 0.109-0.667 0.11-1.404 0.009-1.683 0.248-2.115 1.583-0.216 0.667-0.066 1.253 0.205 1.836 0.222 0.478 0.473 0.94 0.736 1.393 1.135 1.954 2.487 3.759 4.263 5.153 5.768 4.527 11.819 8.676 17.646 13.125 1.673 1.278 3.352 2.546 4.804 4.082 1.371 1.45 2.688 2.941 2.78 5.204 2.048 0 4.042 0 6.034 0.001 0.771 0 0.81-0.046 0.684-0.8C81.346 70.542 80.65 69.349 79.831 68.229z" data-fill-palette-color="accent"></path><path fill="#5ebc67" d="M27.882 67.337c-0.868-1.695-1.802-3.356-2.637-5.066-1.553-3.185-2.857-6.423-3.188-10.032-0.317-3.458 0.062-6.784 1.013-10.085 0.265-0.919 0.608-1.811 0.965-2.693-0.429-0.228-0.681 0.027-0.957 0.199-1.291 0.807-2.471 1.781-3.762 2.578-1.325 0.819-2.383 1.859-3.213 3.156-0.5 0.779-1.196 1.421-1.587 2.276 0.328 0.019 0.531-0.187 0.731-0.382 0.026-0.025 0.052-0.049 0.079-0.075 0.002-0.002 0.005-0.003 0.007-0.006 0.032-0.029 0.065-0.056 0.097-0.084 1.523-1.199 2.894-2.573 4.359-3.837 0.212-0.183 0.391-0.445 0.702-0.469 0.167 0.312-0.071 0.403-0.195 0.516-1.853 1.672-3.472 3.564-5.132 5.42-1.143 1.279-2.292 2.567-3.66 3.609-1.002 0.764-1.843 1.638-2.572 2.66-1.256 1.759-2.572 3.477-3.879 5.234 0.116 0.021 0.185 0.057 0.217 0.035 0.186-0.119 0.364-0.25 0.541-0.382 2.885-2.15 5.309-4.757 7.506-7.586 1.034-1.33 2.057-2.668 3.085-4.002 0.05 0.08 0.1 0.16 0.15 0.24-0.786 1.263-1.571 2.529-2.358 3.791-2.244 3.599-4.719 7.019-7.659 10.093C6.036 62.964 5.52 63.464 5 63.96v4.642c0.294-0.461 0.581-0.926 0.939-1.339 1.563-1.798 3.013-3.681 4.261-5.712 2.3-3.738 4.321-7.63 6.284-11.551 0.727-1.454 1.519-2.869 2.468-4.192 0.056 0.04 0.112 0.079 0.168 0.119-0.278 0.572-0.585 1.132-0.827 1.717-1.367 3.314-2.791 6.604-3.949 10.002-0.633 1.855-1.348 3.68-2.182 5.453-0.227 0.485-0.367 0.979-0.442 1.5-0.064 0.438-0.121 0.876-0.191 1.313-0.36 2.238-1.165 4.258-2.872 5.833-0.028 0.025-0.009 0.103-0.016 0.232 2.052 0 4.098-0.01 6.145 0.01 0.356 0.002 0.558-0.168 0.76-0.409 0.832-0.998 1.198-2.165 1.267-3.441 0.078-1.416-0.065-2.823-0.238-4.225-0.223-1.812-0.434-3.588 0.042-5.423 0.566-2.189 0.693-4.478 1.371-6.65 0.729-2.342 1.339-4.728 2.342-6.978 0.444-0.995 0.936-1.968 1.597-2.872 0.226 0.371-0.021 0.637-0.126 0.898-0.944 2.313-1.51 4.731-1.947 7.179-0.44 2.467-0.319 4.971-0.379 7.461-0.005 0.164 0.025 0.333 0.065 0.492 0.294 1.18 0.582 2.36 0.897 3.534 0.538 1.998 1.313 3.925 1.798 5.938 0.369 1.529 0.609 3.061-0.488 4.437-0.016 0.021 0.029 0.089 0.064 0.188 1.921 0 3.86-0.002 5.798 0 0.842 0 0.985-0.112 1.191-0.912 0.091-0.354 0.11-0.703 0.061-1.068C28.726 69.135 28.336 68.221 27.882 67.337z" data-fill-palette-color="accent"></path><path fill="#5ebc67" d="M14.505 47.684c0.001 0 0.002 0 0.004-0.002 0.002-0.004 0.005-0.008 0.006-0.013-0.008-0.001-0.016-0.001-0.024-0.001C14.497 47.674 14.5 47.68 14.505 47.684z" data-fill-palette-color="accent"></path><path fill="#5ebc67" d="M14.489 47.78c0.012-0.003 0.021-0.008 0.027-0.015 0.004-0.005 0.005-0.011 0.006-0.016 0.001-0.002 0.003-0.004 0.004-0.008 0-0.008 0-0.015-0.004-0.024 0-0.001 0-0.001 0-0.002-0.003-0.01-0.009-0.02-0.017-0.031-0.037 0.019-0.074 0.039-0.111 0.059C14.426 47.757 14.463 47.789 14.489 47.78z" data-fill-palette-color="accent"></path><path fill="#5ebc67" d="M94.996 72.358c-0.134-0.822-0.309-1.646-0.669-2.385-0.715-1.457-0.714-2.984-0.605-4.536 0.098-1.437 0.137-2.876 0.106-4.316-0.011-0.475-0.161-0.83-0.455-1.193-1.201-1.482-2.36-2.999-3.562-4.482-0.549-0.676-1.029-1.415-1.674-2.03-0.17 0.218-0.098 0.416-0.115 0.597-0.113 1.188-0.621 1.615-1.799 1.517-0.701-0.059-1.341-0.321-1.963-0.614-1.42-0.674-2.814-1.403-4.243-2.053-2.938-1.337-5.987-2.395-9.04-3.432-1.293-0.439-2.254-1.133-2.639-2.489-0.081-0.28-0.242-0.483-0.496-0.633-0.201-0.118-0.448-0.202-0.509-0.342 1.134-2.403 2.229-4.722 3.376-7.15-1.094 0-2.034 0.027-2.971-0.011-0.449-0.02-0.688 0.126-0.904 0.52-0.892 1.617-1.821 3.212-2.735 4.815-0.429 0.754-0.427 0.756-1.248 0.6-0.733-0.14-1.468-0.263-2.195-0.432-0.467-0.11-0.931-0.108-1.401-0.118-0.447-0.011-0.789 0.171-1.095 0.546 0.602 0.529 1.265 0.921 1.912 1.32 1.688 1.037 3.335 2.132 5.195 2.886 1.421 0.575 2.883 1.149 3.908 2.407 1.493 1.832 3.358 3.294 4.998 4.98 0.623 0.639 1.344 1.131 2.112 1.586 3.688 2.178 6.92 4.863 9.288 8.484 1.23 1.878 2.371 3.801 2.609 6.104 0.037 0.342 0.277 0.286 0.488 0.289 1.965 0.034 3.931 0.049 5.897 0.104C95.032 72.908 95.058 72.736 94.996 72.358z" data-fill-palette-color="accent"></path><path fill="#5ebc67" d="M54.489 70.436c-0.393-0.672-0.874-1.279-1.397-1.853-1.945-2.135-4.142-4.001-6.318-5.89-2.931-2.541-5.87-5.068-8.34-8.087-1.545-1.89-3-3.821-3.961-6.093-1.001-2.362-1.873-4.776-2.836-7.153-0.156-0.385-0.215-0.795-0.241-1.214-0.062-0.994-0.153-1.985-0.246-2.977-0.134-1.453 0.144-2.857 0.993-4.1 0.071-0.104 0.208-0.199 0.026-0.416-0.574 0.348-1.144 0.726-1.743 1.05-1.08 0.583-1.652 1.503-1.872 2.677-0.03 0.165-0.051 0.329-0.066 0.493-0.128 1.469 0.049 2.929 0.097 4.393 0.043 1.358 0.395 2.611 0.89 3.852 0.685 1.716 1.314 3.455 2.026 5.161 0.66 1.579 1.407 3.119 2.393 4.533 1.893 2.716 4.119 5.139 6.471 7.454 1.936 1.902 3.942 3.736 5.754 5.764 0.666 0.743 1.309 1.509 1.763 2.401 0.289 0.562 0.55 1.152 0.174 2.003 2.081 0 4.018 0 5.953 0.001 0.95 0 1.15-0.259 0.866-1.177C54.785 70.973 54.643 70.695 54.489 70.436z" data-fill-palette-color="accent"></path><path fill="#5ebc67" d="M40.693 68.826c-1.387-1.98-3.098-3.687-4.675-5.506-1.994-2.303-3.959-4.629-5.462-7.297-1.274-2.268-2.245-4.674-3.066-7.134-0.411-1.227-0.876-2.445-1.053-3.739-0.343-2.495-0.056-4.972 0.176-7.454 0.037-0.406 0.385-0.716 0.32-1.14-0.166-0.012-0.247 0.06-0.334 0.128-1.083 0.876-1.681 2.035-1.933 3.377-0.179 0.951-0.301 1.913-0.464 2.867-0.289 1.676-0.39 3.368-0.132 5.045 0.503 3.297 1.506 6.44 2.979 9.44 1.459 2.971 3.378 5.637 5.292 8.312 0.851 1.191 1.749 2.353 2.385 3.682 0.416 0.866 0.657 1.756 0.115 2.868 2.151 0 4.144 0.002 6.136-0.001 0.671-0.001 0.8-0.138 0.822-0.815 0.013-0.397-0.084-0.771-0.237-1.13C41.331 69.796 41.027 69.302 40.693 68.826z" data-fill-palette-color="accent"></path><path fill="#5ebc67" d="M71.833 47.306c0.773 0.395 1.508 0.218 2.203-0.185 0.762-0.442 1.548-0.875 1.81-1.83 0.466-1.7 0.935-3.4 1.426-5.094 0.089-0.305 0.037-0.512-0.14-0.758-0.295-0.412-0.622-0.656-1.172-0.582-0.407 0.056-0.831 0.044-1.242-0.001-0.492-0.055-0.721 0.117-0.894 0.597-0.66 1.84-1.381 3.659-2.062 5.49-0.255 0.684-0.573 1.315-1.215 1.831C70.98 47.077 71.441 47.107 71.833 47.306z" data-fill-palette-color="accent"></path><path fill="#5ebc67" d="M75.627 48.175c-0.339-0.013-0.673-0.048-1.143 0.084 1.777 0.556 3.368 1.229 4.993 1.81 0.727 0.26 1.475 0.461 2.268 0.428 1.087-0.045 1.682-0.532 1.908-1.598 0.04-0.19 0.04-0.388 0.092-0.574 0.079-0.294 0.012-0.53-0.178-0.767-1.093-1.355-2.172-2.72-3.32-4.162-0.167 0.28-0.178 0.5-0.217 0.715-0.146 0.816-0.274 1.636-0.566 2.416-0.392 1.042-1.163 1.586-2.26 1.651C76.681 48.211 76.152 48.198 75.627 48.175z" data-fill-palette-color="accent"></path><path fill="#5ebc67" d="M20.285 39.799c0.846-0.351 1.47-0.783 2.139-1.166C21.312 38.195 20.846 38.919 20.285 39.799z" data-fill-palette-color="accent"></path></g></svg></g></svg></g></svg></g><defs></defs></svg><rect width="395.52" height="120.9261552546574" fill="none" stroke="none" visibility="hidden"></rect></g></svg></g></svg>